<?xml version="1.0" encoding="utf-8" standalone="no"?>
<!DOCTYPE svg PUBLIC "-//W3C//DTD SVG 1.1//EN"
  "http://www.w3.org/Graphics/SVG/1.1/DTD/svg11.dtd">
<svg height="345.6pt" version="1.1" viewBox="0 0 460.8 345.6" width="460.8pt" xmlns="http://www.w3.org/2000/svg" xmlns:xlink="http://www.w3.org/1999/xlink">
 <metadata>
  <rdf:RDF xmlns:cc="http://creativecommons.org/ns#" xmlns:dc="http://purl.org/dc/elements/1.1/" xmlns:rdf="http://www.w3.org/1999/02/22-rdf-syntax-ns#">
   <cc:Work>
    <dc:type rdf:resource="http://purl.org/dc/dcmitype/StillImage"/>
    <dc:date>2022-10-25T18:20:30.051278</dc:date>
    <dc:format>image/svg+xml</dc:format>
    <dc:creator>
     <cc:Agent>
      <dc:title>Matplotlib v3.4.3, https://matplotlib.org/</dc:title>
     </cc:Agent>
    </dc:creator>
   </cc:Work>
  </rdf:RDF>
 </metadata>
 <defs>
  <style type="text/css">*{stroke-linecap:butt;stroke-linejoin:round;}</style>
 </defs>
 <g id="figure_1">
  <g id="patch_1">
   <path d="M 0 345.6 
L 460.8 345.6 
L 460.8 0 
L 0 0 
z
" style="fill:#ffffff;"/>
  </g>
  <g id="axes_1">
   <g id="patch_2">
    <path d="M 57.6 307.584 
L 414.72 307.584 
L 414.72 41.472 
L 57.6 41.472 
z
" style="fill:#ffffff;"/>
   </g>
   <g id="PathCollection_1">
    <defs>
     <path d="M 0 1.581139 
C 0.419323 1.581139 0.821528 1.41454 1.118034 1.118034 
C 1.41454 0.821528 1.581139 0.419323 1.581139 0 
C 1.581139 -0.419323 1.41454 -0.821528 1.118034 -1.118034 
C 0.821528 -1.41454 0.419323 -1.581139 0 -1.581139 
C -0.419323 -1.581139 -0.821528 -1.41454 -1.118034 -1.118034 
C -1.41454 -0.821528 -1.581139 -0.419323 -1.581139 0 
C -1.581139 0.419323 -1.41454 0.821528 -1.118034 1.118034 
C -0.821528 1.41454 -0.419323 1.581139 0 1.581139 
z
" id="m30001bbcfd" style="stroke:#dc143c;"/>
    </defs>
    <g clip-path="url(#p17f726cb55)">
     <use style="fill:#dc143c;stroke:#dc143c;" x="57.6" xlink:href="#m30001bbcfd" y="306.572284"/>
     <use style="fill:#dc143c;stroke:#dc143c;" x="74.690743" xlink:href="#m30001bbcfd" y="203.377239"/>
     <use style="fill:#dc143c;stroke:#dc143c;" x="91.781486" xlink:href="#m30001bbcfd" y="142.674271"/>
     <use style="fill:#dc143c;stroke:#dc143c;" x="108.872229" xlink:href="#m30001bbcfd" y="108.275923"/>
     <use style="fill:#dc143c;stroke:#dc143c;" x="125.962971" xlink:href="#m30001bbcfd" y="86.018168"/>
     <use style="fill:#dc143c;stroke:#dc143c;" x="143.053714" xlink:href="#m30001bbcfd" y="73.877574"/>
     <use style="fill:#dc143c;stroke:#dc143c;" x="160.144457" xlink:href="#m30001bbcfd" y="65.783845"/>
     <use style="fill:#dc143c;stroke:#dc143c;" x="177.2352" xlink:href="#m30001bbcfd" y="61.736981"/>
     <use style="fill:#dc143c;stroke:#dc143c;" x="194.325943" xlink:href="#m30001bbcfd" y="94.111897"/>
     <use style="fill:#dc143c;stroke:#dc143c;" x="211.416686" xlink:href="#m30001bbcfd" y="171.002323"/>
     <use style="fill:#dc143c;stroke:#dc143c;" x="228.507429" xlink:href="#m30001bbcfd" y="217.541265"/>
     <use style="fill:#dc143c;stroke:#dc143c;" x="245.598171" xlink:href="#m30001bbcfd" y="249.916181"/>
     <use style="fill:#dc143c;stroke:#dc143c;" x="262.688914" xlink:href="#m30001bbcfd" y="270.150503"/>
     <use style="fill:#dc143c;stroke:#dc143c;" x="279.779657" xlink:href="#m30001bbcfd" y="284.314529"/>
     <use style="fill:#dc143c;stroke:#dc143c;" x="296.8704" xlink:href="#m30001bbcfd" y="292.408258"/>
     <use style="fill:#dc143c;stroke:#dc143c;" x="313.961143" xlink:href="#m30001bbcfd" y="298.478555"/>
     <use style="fill:#dc143c;stroke:#dc143c;" x="331.051886" xlink:href="#m30001bbcfd" y="300.501987"/>
     <use style="fill:#dc143c;stroke:#dc143c;" x="348.142629" xlink:href="#m30001bbcfd" y="304.548852"/>
    </g>
   </g>
   <g id="matplotlib.axis_1">
    <g id="xtick_1">
     <g id="line2d_1">
      <path clip-path="url(#p17f726cb55)" d="M 57.6 307.584 
L 57.6 41.472 
" style="fill:none;stroke:#808080;stroke-linecap:square;"/>
     </g>
     <g id="line2d_2">
      <defs>
       <path d="M 0 0 
L 0 3.5 
" id="m2fe80c022b" style="stroke:#000000;stroke-width:0.8;"/>
      </defs>
      <g>
       <use style="stroke:#000000;stroke-width:0.8;" x="57.6" xlink:href="#m2fe80c022b" y="307.584"/>
      </g>
     </g>
     <g id="text_1">
      <!-- 0 -->
      <g transform="translate(54.41875 322.182437)scale(0.1 -0.1)">
       <defs>
        <path d="M 2034 4250 
Q 1547 4250 1301 3770 
Q 1056 3291 1056 2328 
Q 1056 1369 1301 889 
Q 1547 409 2034 409 
Q 2525 409 2770 889 
Q 3016 1369 3016 2328 
Q 3016 3291 2770 3770 
Q 2525 4250 2034 4250 
z
M 2034 4750 
Q 2819 4750 3233 4129 
Q 3647 3509 3647 2328 
Q 3647 1150 3233 529 
Q 2819 -91 2034 -91 
Q 1250 -91 836 529 
Q 422 1150 422 2328 
Q 422 3509 836 4129 
Q 1250 4750 2034 4750 
z
" id="DejaVuSans-30" transform="scale(0.015625)"/>
       </defs>
       <use xlink:href="#DejaVuSans-30"/>
      </g>
     </g>
    </g>
    <g id="xtick_2">
     <g id="line2d_3">
      <path clip-path="url(#p17f726cb55)" d="M 108.617143 307.584 
L 108.617143 41.472 
" style="fill:none;stroke:#808080;stroke-linecap:square;"/>
     </g>
     <g id="line2d_4">
      <g>
       <use style="stroke:#000000;stroke-width:0.8;" x="108.617143" xlink:href="#m2fe80c022b" y="307.584"/>
      </g>
     </g>
     <g id="text_2">
      <!-- 2 -->
      <g transform="translate(105.435893 322.182437)scale(0.1 -0.1)">
       <defs>
        <path d="M 1228 531 
L 3431 531 
L 3431 0 
L 469 0 
L 469 531 
Q 828 903 1448 1529 
Q 2069 2156 2228 2338 
Q 2531 2678 2651 2914 
Q 2772 3150 2772 3378 
Q 2772 3750 2511 3984 
Q 2250 4219 1831 4219 
Q 1534 4219 1204 4116 
Q 875 4013 500 3803 
L 500 4441 
Q 881 4594 1212 4672 
Q 1544 4750 1819 4750 
Q 2544 4750 2975 4387 
Q 3406 4025 3406 3419 
Q 3406 3131 3298 2873 
Q 3191 2616 2906 2266 
Q 2828 2175 2409 1742 
Q 1991 1309 1228 531 
z
" id="DejaVuSans-32" transform="scale(0.015625)"/>
       </defs>
       <use xlink:href="#DejaVuSans-32"/>
      </g>
     </g>
    </g>
    <g id="xtick_3">
     <g id="line2d_5">
      <path clip-path="url(#p17f726cb55)" d="M 159.634286 307.584 
L 159.634286 41.472 
" style="fill:none;stroke:#808080;stroke-linecap:square;"/>
     </g>
     <g id="line2d_6">
      <g>
       <use style="stroke:#000000;stroke-width:0.8;" x="159.634286" xlink:href="#m2fe80c022b" y="307.584"/>
      </g>
     </g>
     <g id="text_3">
      <!-- 4 -->
      <g transform="translate(156.453036 322.182437)scale(0.1 -0.1)">
       <defs>
        <path d="M 2419 4116 
L 825 1625 
L 2419 1625 
L 2419 4116 
z
M 2253 4666 
L 3047 4666 
L 3047 1625 
L 3713 1625 
L 3713 1100 
L 3047 1100 
L 3047 0 
L 2419 0 
L 2419 1100 
L 313 1100 
L 313 1709 
L 2253 4666 
z
" id="DejaVuSans-34" transform="scale(0.015625)"/>
       </defs>
       <use xlink:href="#DejaVuSans-34"/>
      </g>
     </g>
    </g>
    <g id="xtick_4">
     <g id="line2d_7">
      <path clip-path="url(#p17f726cb55)" d="M 210.651429 307.584 
L 210.651429 41.472 
" style="fill:none;stroke:#808080;stroke-linecap:square;"/>
     </g>
     <g id="line2d_8">
      <g>
       <use style="stroke:#000000;stroke-width:0.8;" x="210.651429" xlink:href="#m2fe80c022b" y="307.584"/>
      </g>
     </g>
     <g id="text_4">
      <!-- 6 -->
      <g transform="translate(207.470179 322.182437)scale(0.1 -0.1)">
       <defs>
        <path d="M 2113 2584 
Q 1688 2584 1439 2293 
Q 1191 2003 1191 1497 
Q 1191 994 1439 701 
Q 1688 409 2113 409 
Q 2538 409 2786 701 
Q 3034 994 3034 1497 
Q 3034 2003 2786 2293 
Q 2538 2584 2113 2584 
z
M 3366 4563 
L 3366 3988 
Q 3128 4100 2886 4159 
Q 2644 4219 2406 4219 
Q 1781 4219 1451 3797 
Q 1122 3375 1075 2522 
Q 1259 2794 1537 2939 
Q 1816 3084 2150 3084 
Q 2853 3084 3261 2657 
Q 3669 2231 3669 1497 
Q 3669 778 3244 343 
Q 2819 -91 2113 -91 
Q 1303 -91 875 529 
Q 447 1150 447 2328 
Q 447 3434 972 4092 
Q 1497 4750 2381 4750 
Q 2619 4750 2861 4703 
Q 3103 4656 3366 4563 
z
" id="DejaVuSans-36" transform="scale(0.015625)"/>
       </defs>
       <use xlink:href="#DejaVuSans-36"/>
      </g>
     </g>
    </g>
    <g id="xtick_5">
     <g id="line2d_9">
      <path clip-path="url(#p17f726cb55)" d="M 261.668571 307.584 
L 261.668571 41.472 
" style="fill:none;stroke:#808080;stroke-linecap:square;"/>
     </g>
     <g id="line2d_10">
      <g>
       <use style="stroke:#000000;stroke-width:0.8;" x="261.668571" xlink:href="#m2fe80c022b" y="307.584"/>
      </g>
     </g>
     <g id="text_5">
      <!-- 8 -->
      <g transform="translate(258.487321 322.182437)scale(0.1 -0.1)">
       <defs>
        <path d="M 2034 2216 
Q 1584 2216 1326 1975 
Q 1069 1734 1069 1313 
Q 1069 891 1326 650 
Q 1584 409 2034 409 
Q 2484 409 2743 651 
Q 3003 894 3003 1313 
Q 3003 1734 2745 1975 
Q 2488 2216 2034 2216 
z
M 1403 2484 
Q 997 2584 770 2862 
Q 544 3141 544 3541 
Q 544 4100 942 4425 
Q 1341 4750 2034 4750 
Q 2731 4750 3128 4425 
Q 3525 4100 3525 3541 
Q 3525 3141 3298 2862 
Q 3072 2584 2669 2484 
Q 3125 2378 3379 2068 
Q 3634 1759 3634 1313 
Q 3634 634 3220 271 
Q 2806 -91 2034 -91 
Q 1263 -91 848 271 
Q 434 634 434 1313 
Q 434 1759 690 2068 
Q 947 2378 1403 2484 
z
M 1172 3481 
Q 1172 3119 1398 2916 
Q 1625 2713 2034 2713 
Q 2441 2713 2670 2916 
Q 2900 3119 2900 3481 
Q 2900 3844 2670 4047 
Q 2441 4250 2034 4250 
Q 1625 4250 1398 4047 
Q 1172 3844 1172 3481 
z
" id="DejaVuSans-38" transform="scale(0.015625)"/>
       </defs>
       <use xlink:href="#DejaVuSans-38"/>
      </g>
     </g>
    </g>
    <g id="xtick_6">
     <g id="line2d_11">
      <path clip-path="url(#p17f726cb55)" d="M 312.685714 307.584 
L 312.685714 41.472 
" style="fill:none;stroke:#808080;stroke-linecap:square;"/>
     </g>
     <g id="line2d_12">
      <g>
       <use style="stroke:#000000;stroke-width:0.8;" x="312.685714" xlink:href="#m2fe80c022b" y="307.584"/>
      </g>
     </g>
     <g id="text_6">
      <!-- 10 -->
      <g transform="translate(306.323214 322.182437)scale(0.1 -0.1)">
       <defs>
        <path d="M 794 531 
L 1825 531 
L 1825 4091 
L 703 3866 
L 703 4441 
L 1819 4666 
L 2450 4666 
L 2450 531 
L 3481 531 
L 3481 0 
L 794 0 
L 794 531 
z
" id="DejaVuSans-31" transform="scale(0.015625)"/>
       </defs>
       <use xlink:href="#DejaVuSans-31"/>
       <use x="63.623047" xlink:href="#DejaVuSans-30"/>
      </g>
     </g>
    </g>
    <g id="xtick_7">
     <g id="line2d_13">
      <path clip-path="url(#p17f726cb55)" d="M 363.702857 307.584 
L 363.702857 41.472 
" style="fill:none;stroke:#808080;stroke-linecap:square;"/>
     </g>
     <g id="line2d_14">
      <g>
       <use style="stroke:#000000;stroke-width:0.8;" x="363.702857" xlink:href="#m2fe80c022b" y="307.584"/>
      </g>
     </g>
     <g id="text_7">
      <!-- 12 -->
      <g transform="translate(357.340357 322.182437)scale(0.1 -0.1)">
       <use xlink:href="#DejaVuSans-31"/>
       <use x="63.623047" xlink:href="#DejaVuSans-32"/>
      </g>
     </g>
    </g>
    <g id="xtick_8">
     <g id="line2d_15">
      <path clip-path="url(#p17f726cb55)" d="M 414.72 307.584 
L 414.72 41.472 
" style="fill:none;stroke:#808080;stroke-linecap:square;"/>
     </g>
     <g id="line2d_16">
      <g>
       <use style="stroke:#000000;stroke-width:0.8;" x="414.72" xlink:href="#m2fe80c022b" y="307.584"/>
      </g>
     </g>
     <g id="text_8">
      <!-- 14 -->
      <g transform="translate(408.3575 322.182437)scale(0.1 -0.1)">
       <use xlink:href="#DejaVuSans-31"/>
       <use x="63.623047" xlink:href="#DejaVuSans-34"/>
      </g>
     </g>
    </g>
    <g id="xtick_9">
     <g id="line2d_17">
      <path clip-path="url(#p17f726cb55)" d="M 67.803429 307.584 
L 67.803429 41.472 
" style="fill:none;stroke:#808080;stroke-dasharray:1.85,0.8;stroke-dashoffset:0;stroke-width:0.5;"/>
     </g>
     <g id="line2d_18">
      <defs>
       <path d="M 0 0 
L 0 2 
" id="me459852b9e" style="stroke:#000000;stroke-width:0.6;"/>
      </defs>
      <g>
       <use style="stroke:#000000;stroke-width:0.6;" x="67.803429" xlink:href="#me459852b9e" y="307.584"/>
      </g>
     </g>
    </g>
    <g id="xtick_10">
     <g id="line2d_19">
      <path clip-path="url(#p17f726cb55)" d="M 78.006857 307.584 
L 78.006857 41.472 
" style="fill:none;stroke:#808080;stroke-dasharray:1.85,0.8;stroke-dashoffset:0;stroke-width:0.5;"/>
     </g>
     <g id="line2d_20">
      <g>
       <use style="stroke:#000000;stroke-width:0.6;" x="78.006857" xlink:href="#me459852b9e" y="307.584"/>
      </g>
     </g>
    </g>
    <g id="xtick_11">
     <g id="line2d_21">
      <path clip-path="url(#p17f726cb55)" d="M 88.210286 307.584 
L 88.210286 41.472 
" style="fill:none;stroke:#808080;stroke-dasharray:1.85,0.8;stroke-dashoffset:0;stroke-width:0.5;"/>
     </g>
     <g id="line2d_22">
      <g>
       <use style="stroke:#000000;stroke-width:0.6;" x="88.210286" xlink:href="#me459852b9e" y="307.584"/>
      </g>
     </g>
    </g>
    <g id="xtick_12">
     <g id="line2d_23">
      <path clip-path="url(#p17f726cb55)" d="M 98.413714 307.584 
L 98.413714 41.472 
" style="fill:none;stroke:#808080;stroke-dasharray:1.85,0.8;stroke-dashoffset:0;stroke-width:0.5;"/>
     </g>
     <g id="line2d_24">
      <g>
       <use style="stroke:#000000;stroke-width:0.6;" x="98.413714" xlink:href="#me459852b9e" y="307.584"/>
      </g>
     </g>
    </g>
    <g id="xtick_13">
     <g id="line2d_25">
      <path clip-path="url(#p17f726cb55)" d="M 118.820571 307.584 
L 118.820571 41.472 
" style="fill:none;stroke:#808080;stroke-dasharray:1.85,0.8;stroke-dashoffset:0;stroke-width:0.5;"/>
     </g>
     <g id="line2d_26">
      <g>
       <use style="stroke:#000000;stroke-width:0.6;" x="118.820571" xlink:href="#me459852b9e" y="307.584"/>
      </g>
     </g>
    </g>
    <g id="xtick_14">
     <g id="line2d_27">
      <path clip-path="url(#p17f726cb55)" d="M 129.024 307.584 
L 129.024 41.472 
" style="fill:none;stroke:#808080;stroke-dasharray:1.85,0.8;stroke-dashoffset:0;stroke-width:0.5;"/>
     </g>
     <g id="line2d_28">
      <g>
       <use style="stroke:#000000;stroke-width:0.6;" x="129.024" xlink:href="#me459852b9e" y="307.584"/>
      </g>
     </g>
    </g>
    <g id="xtick_15">
     <g id="line2d_29">
      <path clip-path="url(#p17f726cb55)" d="M 139.227429 307.584 
L 139.227429 41.472 
" style="fill:none;stroke:#808080;stroke-dasharray:1.85,0.8;stroke-dashoffset:0;stroke-width:0.5;"/>
     </g>
     <g id="line2d_30">
      <g>
       <use style="stroke:#000000;stroke-width:0.6;" x="139.227429" xlink:href="#me459852b9e" y="307.584"/>
      </g>
     </g>
    </g>
    <g id="xtick_16">
     <g id="line2d_31">
      <path clip-path="url(#p17f726cb55)" d="M 149.430857 307.584 
L 149.430857 41.472 
" style="fill:none;stroke:#808080;stroke-dasharray:1.85,0.8;stroke-dashoffset:0;stroke-width:0.5;"/>
     </g>
     <g id="line2d_32">
      <g>
       <use style="stroke:#000000;stroke-width:0.6;" x="149.430857" xlink:href="#me459852b9e" y="307.584"/>
      </g>
     </g>
    </g>
    <g id="xtick_17">
     <g id="line2d_33">
      <path clip-path="url(#p17f726cb55)" d="M 169.837714 307.584 
L 169.837714 41.472 
" style="fill:none;stroke:#808080;stroke-dasharray:1.85,0.8;stroke-dashoffset:0;stroke-width:0.5;"/>
     </g>
     <g id="line2d_34">
      <g>
       <use style="stroke:#000000;stroke-width:0.6;" x="169.837714" xlink:href="#me459852b9e" y="307.584"/>
      </g>
     </g>
    </g>
    <g id="xtick_18">
     <g id="line2d_35">
      <path clip-path="url(#p17f726cb55)" d="M 180.041143 307.584 
L 180.041143 41.472 
" style="fill:none;stroke:#808080;stroke-dasharray:1.85,0.8;stroke-dashoffset:0;stroke-width:0.5;"/>
     </g>
     <g id="line2d_36">
      <g>
       <use style="stroke:#000000;stroke-width:0.6;" x="180.041143" xlink:href="#me459852b9e" y="307.584"/>
      </g>
     </g>
    </g>
    <g id="xtick_19">
     <g id="line2d_37">
      <path clip-path="url(#p17f726cb55)" d="M 190.244571 307.584 
L 190.244571 41.472 
" style="fill:none;stroke:#808080;stroke-dasharray:1.85,0.8;stroke-dashoffset:0;stroke-width:0.5;"/>
     </g>
     <g id="line2d_38">
      <g>
       <use style="stroke:#000000;stroke-width:0.6;" x="190.244571" xlink:href="#me459852b9e" y="307.584"/>
      </g>
     </g>
    </g>
    <g id="xtick_20">
     <g id="line2d_39">
      <path clip-path="url(#p17f726cb55)" d="M 200.448 307.584 
L 200.448 41.472 
" style="fill:none;stroke:#808080;stroke-dasharray:1.85,0.8;stroke-dashoffset:0;stroke-width:0.5;"/>
     </g>
     <g id="line2d_40">
      <g>
       <use style="stroke:#000000;stroke-width:0.6;" x="200.448" xlink:href="#me459852b9e" y="307.584"/>
      </g>
     </g>
    </g>
    <g id="xtick_21">
     <g id="line2d_41">
      <path clip-path="url(#p17f726cb55)" d="M 220.854857 307.584 
L 220.854857 41.472 
" style="fill:none;stroke:#808080;stroke-dasharray:1.85,0.8;stroke-dashoffset:0;stroke-width:0.5;"/>
     </g>
     <g id="line2d_42">
      <g>
       <use style="stroke:#000000;stroke-width:0.6;" x="220.854857" xlink:href="#me459852b9e" y="307.584"/>
      </g>
     </g>
    </g>
    <g id="xtick_22">
     <g id="line2d_43">
      <path clip-path="url(#p17f726cb55)" d="M 231.058286 307.584 
L 231.058286 41.472 
" style="fill:none;stroke:#808080;stroke-dasharray:1.85,0.8;stroke-dashoffset:0;stroke-width:0.5;"/>
     </g>
     <g id="line2d_44">
      <g>
       <use style="stroke:#000000;stroke-width:0.6;" x="231.058286" xlink:href="#me459852b9e" y="307.584"/>
      </g>
     </g>
    </g>
    <g id="xtick_23">
     <g id="line2d_45">
      <path clip-path="url(#p17f726cb55)" d="M 241.261714 307.584 
L 241.261714 41.472 
" style="fill:none;stroke:#808080;stroke-dasharray:1.85,0.8;stroke-dashoffset:0;stroke-width:0.5;"/>
     </g>
     <g id="line2d_46">
      <g>
       <use style="stroke:#000000;stroke-width:0.6;" x="241.261714" xlink:href="#me459852b9e" y="307.584"/>
      </g>
     </g>
    </g>
    <g id="xtick_24">
     <g id="line2d_47">
      <path clip-path="url(#p17f726cb55)" d="M 251.465143 307.584 
L 251.465143 41.472 
" style="fill:none;stroke:#808080;stroke-dasharray:1.85,0.8;stroke-dashoffset:0;stroke-width:0.5;"/>
     </g>
     <g id="line2d_48">
      <g>
       <use style="stroke:#000000;stroke-width:0.6;" x="251.465143" xlink:href="#me459852b9e" y="307.584"/>
      </g>
     </g>
    </g>
    <g id="xtick_25">
     <g id="line2d_49">
      <path clip-path="url(#p17f726cb55)" d="M 271.872 307.584 
L 271.872 41.472 
" style="fill:none;stroke:#808080;stroke-dasharray:1.85,0.8;stroke-dashoffset:0;stroke-width:0.5;"/>
     </g>
     <g id="line2d_50">
      <g>
       <use style="stroke:#000000;stroke-width:0.6;" x="271.872" xlink:href="#me459852b9e" y="307.584"/>
      </g>
     </g>
    </g>
    <g id="xtick_26">
     <g id="line2d_51">
      <path clip-path="url(#p17f726cb55)" d="M 282.075429 307.584 
L 282.075429 41.472 
" style="fill:none;stroke:#808080;stroke-dasharray:1.85,0.8;stroke-dashoffset:0;stroke-width:0.5;"/>
     </g>
     <g id="line2d_52">
      <g>
       <use style="stroke:#000000;stroke-width:0.6;" x="282.075429" xlink:href="#me459852b9e" y="307.584"/>
      </g>
     </g>
    </g>
    <g id="xtick_27">
     <g id="line2d_53">
      <path clip-path="url(#p17f726cb55)" d="M 292.278857 307.584 
L 292.278857 41.472 
" style="fill:none;stroke:#808080;stroke-dasharray:1.85,0.8;stroke-dashoffset:0;stroke-width:0.5;"/>
     </g>
     <g id="line2d_54">
      <g>
       <use style="stroke:#000000;stroke-width:0.6;" x="292.278857" xlink:href="#me459852b9e" y="307.584"/>
      </g>
     </g>
    </g>
    <g id="xtick_28">
     <g id="line2d_55">
      <path clip-path="url(#p17f726cb55)" d="M 302.482286 307.584 
L 302.482286 41.472 
" style="fill:none;stroke:#808080;stroke-dasharray:1.85,0.8;stroke-dashoffset:0;stroke-width:0.5;"/>
     </g>
     <g id="line2d_56">
      <g>
       <use style="stroke:#000000;stroke-width:0.6;" x="302.482286" xlink:href="#me459852b9e" y="307.584"/>
      </g>
     </g>
    </g>
    <g id="xtick_29">
     <g id="line2d_57">
      <path clip-path="url(#p17f726cb55)" d="M 322.889143 307.584 
L 322.889143 41.472 
" style="fill:none;stroke:#808080;stroke-dasharray:1.85,0.8;stroke-dashoffset:0;stroke-width:0.5;"/>
     </g>
     <g id="line2d_58">
      <g>
       <use style="stroke:#000000;stroke-width:0.6;" x="322.889143" xlink:href="#me459852b9e" y="307.584"/>
      </g>
     </g>
    </g>
    <g id="xtick_30">
     <g id="line2d_59">
      <path clip-path="url(#p17f726cb55)" d="M 333.092571 307.584 
L 333.092571 41.472 
" style="fill:none;stroke:#808080;stroke-dasharray:1.85,0.8;stroke-dashoffset:0;stroke-width:0.5;"/>
     </g>
     <g id="line2d_60">
      <g>
       <use style="stroke:#000000;stroke-width:0.6;" x="333.092571" xlink:href="#me459852b9e" y="307.584"/>
      </g>
     </g>
    </g>
    <g id="xtick_31">
     <g id="line2d_61">
      <path clip-path="url(#p17f726cb55)" d="M 343.296 307.584 
L 343.296 41.472 
" style="fill:none;stroke:#808080;stroke-dasharray:1.85,0.8;stroke-dashoffset:0;stroke-width:0.5;"/>
     </g>
     <g id="line2d_62">
      <g>
       <use style="stroke:#000000;stroke-width:0.6;" x="343.296" xlink:href="#me459852b9e" y="307.584"/>
      </g>
     </g>
    </g>
    <g id="xtick_32">
     <g id="line2d_63">
      <path clip-path="url(#p17f726cb55)" d="M 353.499429 307.584 
L 353.499429 41.472 
" style="fill:none;stroke:#808080;stroke-dasharray:1.85,0.8;stroke-dashoffset:0;stroke-width:0.5;"/>
     </g>
     <g id="line2d_64">
      <g>
       <use style="stroke:#000000;stroke-width:0.6;" x="353.499429" xlink:href="#me459852b9e" y="307.584"/>
      </g>
     </g>
    </g>
    <g id="xtick_33">
     <g id="line2d_65">
      <path clip-path="url(#p17f726cb55)" d="M 373.906286 307.584 
L 373.906286 41.472 
" style="fill:none;stroke:#808080;stroke-dasharray:1.85,0.8;stroke-dashoffset:0;stroke-width:0.5;"/>
     </g>
     <g id="line2d_66">
      <g>
       <use style="stroke:#000000;stroke-width:0.6;" x="373.906286" xlink:href="#me459852b9e" y="307.584"/>
      </g>
     </g>
    </g>
    <g id="xtick_34">
     <g id="line2d_67">
      <path clip-path="url(#p17f726cb55)" d="M 384.109714 307.584 
L 384.109714 41.472 
" style="fill:none;stroke:#808080;stroke-dasharray:1.85,0.8;stroke-dashoffset:0;stroke-width:0.5;"/>
     </g>
     <g id="line2d_68">
      <g>
       <use style="stroke:#000000;stroke-width:0.6;" x="384.109714" xlink:href="#me459852b9e" y="307.584"/>
      </g>
     </g>
    </g>
    <g id="xtick_35">
     <g id="line2d_69">
      <path clip-path="url(#p17f726cb55)" d="M 394.313143 307.584 
L 394.313143 41.472 
" style="fill:none;stroke:#808080;stroke-dasharray:1.85,0.8;stroke-dashoffset:0;stroke-width:0.5;"/>
     </g>
     <g id="line2d_70">
      <g>
       <use style="stroke:#000000;stroke-width:0.6;" x="394.313143" xlink:href="#me459852b9e" y="307.584"/>
      </g>
     </g>
    </g>
    <g id="xtick_36">
     <g id="line2d_71">
      <path clip-path="url(#p17f726cb55)" d="M 404.516571 307.584 
L 404.516571 41.472 
" style="fill:none;stroke:#808080;stroke-dasharray:1.85,0.8;stroke-dashoffset:0;stroke-width:0.5;"/>
     </g>
     <g id="line2d_72">
      <g>
       <use style="stroke:#000000;stroke-width:0.6;" x="404.516571" xlink:href="#me459852b9e" y="307.584"/>
      </g>
     </g>
    </g>
    <g id="text_9">
     <!-- Time, s -->
     <g transform="translate(218.143594 335.860562)scale(0.1 -0.1)">
      <defs>
       <path d="M -19 4666 
L 3928 4666 
L 3928 4134 
L 2272 4134 
L 2272 0 
L 1638 0 
L 1638 4134 
L -19 4134 
L -19 4666 
z
" id="DejaVuSans-54" transform="scale(0.015625)"/>
       <path d="M 603 3500 
L 1178 3500 
L 1178 0 
L 603 0 
L 603 3500 
z
M 603 4863 
L 1178 4863 
L 1178 4134 
L 603 4134 
L 603 4863 
z
" id="DejaVuSans-69" transform="scale(0.015625)"/>
       <path d="M 3328 2828 
Q 3544 3216 3844 3400 
Q 4144 3584 4550 3584 
Q 5097 3584 5394 3201 
Q 5691 2819 5691 2113 
L 5691 0 
L 5113 0 
L 5113 2094 
Q 5113 2597 4934 2840 
Q 4756 3084 4391 3084 
Q 3944 3084 3684 2787 
Q 3425 2491 3425 1978 
L 3425 0 
L 2847 0 
L 2847 2094 
Q 2847 2600 2669 2842 
Q 2491 3084 2119 3084 
Q 1678 3084 1418 2786 
Q 1159 2488 1159 1978 
L 1159 0 
L 581 0 
L 581 3500 
L 1159 3500 
L 1159 2956 
Q 1356 3278 1631 3431 
Q 1906 3584 2284 3584 
Q 2666 3584 2933 3390 
Q 3200 3197 3328 2828 
z
" id="DejaVuSans-6d" transform="scale(0.015625)"/>
       <path d="M 3597 1894 
L 3597 1613 
L 953 1613 
Q 991 1019 1311 708 
Q 1631 397 2203 397 
Q 2534 397 2845 478 
Q 3156 559 3463 722 
L 3463 178 
Q 3153 47 2828 -22 
Q 2503 -91 2169 -91 
Q 1331 -91 842 396 
Q 353 884 353 1716 
Q 353 2575 817 3079 
Q 1281 3584 2069 3584 
Q 2775 3584 3186 3129 
Q 3597 2675 3597 1894 
z
M 3022 2063 
Q 3016 2534 2758 2815 
Q 2500 3097 2075 3097 
Q 1594 3097 1305 2825 
Q 1016 2553 972 2059 
L 3022 2063 
z
" id="DejaVuSans-65" transform="scale(0.015625)"/>
       <path d="M 750 794 
L 1409 794 
L 1409 256 
L 897 -744 
L 494 -744 
L 750 256 
L 750 794 
z
" id="DejaVuSans-2c" transform="scale(0.015625)"/>
       <path id="DejaVuSans-20" transform="scale(0.015625)"/>
       <path d="M 2834 3397 
L 2834 2853 
Q 2591 2978 2328 3040 
Q 2066 3103 1784 3103 
Q 1356 3103 1142 2972 
Q 928 2841 928 2578 
Q 928 2378 1081 2264 
Q 1234 2150 1697 2047 
L 1894 2003 
Q 2506 1872 2764 1633 
Q 3022 1394 3022 966 
Q 3022 478 2636 193 
Q 2250 -91 1575 -91 
Q 1294 -91 989 -36 
Q 684 19 347 128 
L 347 722 
Q 666 556 975 473 
Q 1284 391 1588 391 
Q 1994 391 2212 530 
Q 2431 669 2431 922 
Q 2431 1156 2273 1281 
Q 2116 1406 1581 1522 
L 1381 1569 
Q 847 1681 609 1914 
Q 372 2147 372 2553 
Q 372 3047 722 3315 
Q 1072 3584 1716 3584 
Q 2034 3584 2315 3537 
Q 2597 3491 2834 3397 
z
" id="DejaVuSans-73" transform="scale(0.015625)"/>
      </defs>
      <use xlink:href="#DejaVuSans-54"/>
      <use x="57.958984" xlink:href="#DejaVuSans-69"/>
      <use x="85.742188" xlink:href="#DejaVuSans-6d"/>
      <use x="183.154297" xlink:href="#DejaVuSans-65"/>
      <use x="244.677734" xlink:href="#DejaVuSans-2c"/>
      <use x="276.464844" xlink:href="#DejaVuSans-20"/>
      <use x="308.251953" xlink:href="#DejaVuSans-73"/>
     </g>
    </g>
   </g>
   <g id="matplotlib.axis_2">
    <g id="ytick_1">
     <g id="line2d_73">
      <path clip-path="url(#p17f726cb55)" d="M 57.6 307.584 
L 414.72 307.584 
" style="fill:none;stroke:#808080;stroke-linecap:square;"/>
     </g>
     <g id="line2d_74">
      <defs>
       <path d="M 0 0 
L -3.5 0 
" id="m4cca54baa7" style="stroke:#000000;stroke-width:0.8;"/>
      </defs>
      <g>
       <use style="stroke:#000000;stroke-width:0.8;" x="57.6" xlink:href="#m4cca54baa7" y="307.584"/>
      </g>
     </g>
     <g id="text_10">
      <!-- 0.0 -->
      <g transform="translate(34.696875 311.383219)scale(0.1 -0.1)">
       <defs>
        <path d="M 684 794 
L 1344 794 
L 1344 0 
L 684 0 
L 684 794 
z
" id="DejaVuSans-2e" transform="scale(0.015625)"/>
       </defs>
       <use xlink:href="#DejaVuSans-30"/>
       <use x="63.623047" xlink:href="#DejaVuSans-2e"/>
       <use x="95.410156" xlink:href="#DejaVuSans-30"/>
      </g>
     </g>
    </g>
    <g id="ytick_2">
     <g id="line2d_75">
      <path clip-path="url(#p17f726cb55)" d="M 57.6 269.568 
L 414.72 269.568 
" style="fill:none;stroke:#808080;stroke-linecap:square;"/>
     </g>
     <g id="line2d_76">
      <g>
       <use style="stroke:#000000;stroke-width:0.8;" x="57.6" xlink:href="#m4cca54baa7" y="269.568"/>
      </g>
     </g>
     <g id="text_11">
      <!-- 0.5 -->
      <g transform="translate(34.696875 273.367219)scale(0.1 -0.1)">
       <defs>
        <path d="M 691 4666 
L 3169 4666 
L 3169 4134 
L 1269 4134 
L 1269 2991 
Q 1406 3038 1543 3061 
Q 1681 3084 1819 3084 
Q 2600 3084 3056 2656 
Q 3513 2228 3513 1497 
Q 3513 744 3044 326 
Q 2575 -91 1722 -91 
Q 1428 -91 1123 -41 
Q 819 9 494 109 
L 494 744 
Q 775 591 1075 516 
Q 1375 441 1709 441 
Q 2250 441 2565 725 
Q 2881 1009 2881 1497 
Q 2881 1984 2565 2268 
Q 2250 2553 1709 2553 
Q 1456 2553 1204 2497 
Q 953 2441 691 2322 
L 691 4666 
z
" id="DejaVuSans-35" transform="scale(0.015625)"/>
       </defs>
       <use xlink:href="#DejaVuSans-30"/>
       <use x="63.623047" xlink:href="#DejaVuSans-2e"/>
       <use x="95.410156" xlink:href="#DejaVuSans-35"/>
      </g>
     </g>
    </g>
    <g id="ytick_3">
     <g id="line2d_77">
      <path clip-path="url(#p17f726cb55)" d="M 57.6 231.552 
L 414.72 231.552 
" style="fill:none;stroke:#808080;stroke-linecap:square;"/>
     </g>
     <g id="line2d_78">
      <g>
       <use style="stroke:#000000;stroke-width:0.8;" x="57.6" xlink:href="#m4cca54baa7" y="231.552"/>
      </g>
     </g>
     <g id="text_12">
      <!-- 1.0 -->
      <g transform="translate(34.696875 235.351219)scale(0.1 -0.1)">
       <use xlink:href="#DejaVuSans-31"/>
       <use x="63.623047" xlink:href="#DejaVuSans-2e"/>
       <use x="95.410156" xlink:href="#DejaVuSans-30"/>
      </g>
     </g>
    </g>
    <g id="ytick_4">
     <g id="line2d_79">
      <path clip-path="url(#p17f726cb55)" d="M 57.6 193.536 
L 414.72 193.536 
" style="fill:none;stroke:#808080;stroke-linecap:square;"/>
     </g>
     <g id="line2d_80">
      <g>
       <use style="stroke:#000000;stroke-width:0.8;" x="57.6" xlink:href="#m4cca54baa7" y="193.536"/>
      </g>
     </g>
     <g id="text_13">
      <!-- 1.5 -->
      <g transform="translate(34.696875 197.335219)scale(0.1 -0.1)">
       <use xlink:href="#DejaVuSans-31"/>
       <use x="63.623047" xlink:href="#DejaVuSans-2e"/>
       <use x="95.410156" xlink:href="#DejaVuSans-35"/>
      </g>
     </g>
    </g>
    <g id="ytick_5">
     <g id="line2d_81">
      <path clip-path="url(#p17f726cb55)" d="M 57.6 155.52 
L 414.72 155.52 
" style="fill:none;stroke:#808080;stroke-linecap:square;"/>
     </g>
     <g id="line2d_82">
      <g>
       <use style="stroke:#000000;stroke-width:0.8;" x="57.6" xlink:href="#m4cca54baa7" y="155.52"/>
      </g>
     </g>
     <g id="text_14">
      <!-- 2.0 -->
      <g transform="translate(34.696875 159.319219)scale(0.1 -0.1)">
       <use xlink:href="#DejaVuSans-32"/>
       <use x="63.623047" xlink:href="#DejaVuSans-2e"/>
       <use x="95.410156" xlink:href="#DejaVuSans-30"/>
      </g>
     </g>
    </g>
    <g id="ytick_6">
     <g id="line2d_83">
      <path clip-path="url(#p17f726cb55)" d="M 57.6 117.504 
L 414.72 117.504 
" style="fill:none;stroke:#808080;stroke-linecap:square;"/>
     </g>
     <g id="line2d_84">
      <g>
       <use style="stroke:#000000;stroke-width:0.8;" x="57.6" xlink:href="#m4cca54baa7" y="117.504"/>
      </g>
     </g>
     <g id="text_15">
      <!-- 2.5 -->
      <g transform="translate(34.696875 121.303219)scale(0.1 -0.1)">
       <use xlink:href="#DejaVuSans-32"/>
       <use x="63.623047" xlink:href="#DejaVuSans-2e"/>
       <use x="95.410156" xlink:href="#DejaVuSans-35"/>
      </g>
     </g>
    </g>
    <g id="ytick_7">
     <g id="line2d_85">
      <path clip-path="url(#p17f726cb55)" d="M 57.6 79.488 
L 414.72 79.488 
" style="fill:none;stroke:#808080;stroke-linecap:square;"/>
     </g>
     <g id="line2d_86">
      <g>
       <use style="stroke:#000000;stroke-width:0.8;" x="57.6" xlink:href="#m4cca54baa7" y="79.488"/>
      </g>
     </g>
     <g id="text_16">
      <!-- 3.0 -->
      <g transform="translate(34.696875 83.287219)scale(0.1 -0.1)">
       <defs>
        <path d="M 2597 2516 
Q 3050 2419 3304 2112 
Q 3559 1806 3559 1356 
Q 3559 666 3084 287 
Q 2609 -91 1734 -91 
Q 1441 -91 1130 -33 
Q 819 25 488 141 
L 488 750 
Q 750 597 1062 519 
Q 1375 441 1716 441 
Q 2309 441 2620 675 
Q 2931 909 2931 1356 
Q 2931 1769 2642 2001 
Q 2353 2234 1838 2234 
L 1294 2234 
L 1294 2753 
L 1863 2753 
Q 2328 2753 2575 2939 
Q 2822 3125 2822 3475 
Q 2822 3834 2567 4026 
Q 2313 4219 1838 4219 
Q 1578 4219 1281 4162 
Q 984 4106 628 3988 
L 628 4550 
Q 988 4650 1302 4700 
Q 1616 4750 1894 4750 
Q 2613 4750 3031 4423 
Q 3450 4097 3450 3541 
Q 3450 3153 3228 2886 
Q 3006 2619 2597 2516 
z
" id="DejaVuSans-33" transform="scale(0.015625)"/>
       </defs>
       <use xlink:href="#DejaVuSans-33"/>
       <use x="63.623047" xlink:href="#DejaVuSans-2e"/>
       <use x="95.410156" xlink:href="#DejaVuSans-30"/>
      </g>
     </g>
    </g>
    <g id="ytick_8">
     <g id="line2d_87">
      <path clip-path="url(#p17f726cb55)" d="M 57.6 41.472 
L 414.72 41.472 
" style="fill:none;stroke:#808080;stroke-linecap:square;"/>
     </g>
     <g id="line2d_88">
      <g>
       <use style="stroke:#000000;stroke-width:0.8;" x="57.6" xlink:href="#m4cca54baa7" y="41.472"/>
      </g>
     </g>
     <g id="text_17">
      <!-- 3.5 -->
      <g transform="translate(34.696875 45.271219)scale(0.1 -0.1)">
       <use xlink:href="#DejaVuSans-33"/>
       <use x="63.623047" xlink:href="#DejaVuSans-2e"/>
       <use x="95.410156" xlink:href="#DejaVuSans-35"/>
      </g>
     </g>
    </g>
    <g id="ytick_9">
     <g id="line2d_89">
      <path clip-path="url(#p17f726cb55)" d="M 57.6 299.9808 
L 414.72 299.9808 
" style="fill:none;stroke:#808080;stroke-dasharray:1.85,0.8;stroke-dashoffset:0;stroke-width:0.5;"/>
     </g>
     <g id="line2d_90">
      <defs>
       <path d="M 0 0 
L -2 0 
" id="m09b114e67f" style="stroke:#000000;stroke-width:0.6;"/>
      </defs>
      <g>
       <use style="stroke:#000000;stroke-width:0.6;" x="57.6" xlink:href="#m09b114e67f" y="299.9808"/>
      </g>
     </g>
    </g>
    <g id="ytick_10">
     <g id="line2d_91">
      <path clip-path="url(#p17f726cb55)" d="M 57.6 292.3776 
L 414.72 292.3776 
" style="fill:none;stroke:#808080;stroke-dasharray:1.85,0.8;stroke-dashoffset:0;stroke-width:0.5;"/>
     </g>
     <g id="line2d_92">
      <g>
       <use style="stroke:#000000;stroke-width:0.6;" x="57.6" xlink:href="#m09b114e67f" y="292.3776"/>
      </g>
     </g>
    </g>
    <g id="ytick_11">
     <g id="line2d_93">
      <path clip-path="url(#p17f726cb55)" d="M 57.6 284.7744 
L 414.72 284.7744 
" style="fill:none;stroke:#808080;stroke-dasharray:1.85,0.8;stroke-dashoffset:0;stroke-width:0.5;"/>
     </g>
     <g id="line2d_94">
      <g>
       <use style="stroke:#000000;stroke-width:0.6;" x="57.6" xlink:href="#m09b114e67f" y="284.7744"/>
      </g>
     </g>
    </g>
    <g id="ytick_12">
     <g id="line2d_95">
      <path clip-path="url(#p17f726cb55)" d="M 57.6 277.1712 
L 414.72 277.1712 
" style="fill:none;stroke:#808080;stroke-dasharray:1.85,0.8;stroke-dashoffset:0;stroke-width:0.5;"/>
     </g>
     <g id="line2d_96">
      <g>
       <use style="stroke:#000000;stroke-width:0.6;" x="57.6" xlink:href="#m09b114e67f" y="277.1712"/>
      </g>
     </g>
    </g>
    <g id="ytick_13">
     <g id="line2d_97">
      <path clip-path="url(#p17f726cb55)" d="M 57.6 261.9648 
L 414.72 261.9648 
" style="fill:none;stroke:#808080;stroke-dasharray:1.85,0.8;stroke-dashoffset:0;stroke-width:0.5;"/>
     </g>
     <g id="line2d_98">
      <g>
       <use style="stroke:#000000;stroke-width:0.6;" x="57.6" xlink:href="#m09b114e67f" y="261.9648"/>
      </g>
     </g>
    </g>
    <g id="ytick_14">
     <g id="line2d_99">
      <path clip-path="url(#p17f726cb55)" d="M 57.6 254.3616 
L 414.72 254.3616 
" style="fill:none;stroke:#808080;stroke-dasharray:1.85,0.8;stroke-dashoffset:0;stroke-width:0.5;"/>
     </g>
     <g id="line2d_100">
      <g>
       <use style="stroke:#000000;stroke-width:0.6;" x="57.6" xlink:href="#m09b114e67f" y="254.3616"/>
      </g>
     </g>
    </g>
    <g id="ytick_15">
     <g id="line2d_101">
      <path clip-path="url(#p17f726cb55)" d="M 57.6 246.7584 
L 414.72 246.7584 
" style="fill:none;stroke:#808080;stroke-dasharray:1.85,0.8;stroke-dashoffset:0;stroke-width:0.5;"/>
     </g>
     <g id="line2d_102">
      <g>
       <use style="stroke:#000000;stroke-width:0.6;" x="57.6" xlink:href="#m09b114e67f" y="246.7584"/>
      </g>
     </g>
    </g>
    <g id="ytick_16">
     <g id="line2d_103">
      <path clip-path="url(#p17f726cb55)" d="M 57.6 239.1552 
L 414.72 239.1552 
" style="fill:none;stroke:#808080;stroke-dasharray:1.85,0.8;stroke-dashoffset:0;stroke-width:0.5;"/>
     </g>
     <g id="line2d_104">
      <g>
       <use style="stroke:#000000;stroke-width:0.6;" x="57.6" xlink:href="#m09b114e67f" y="239.1552"/>
      </g>
     </g>
    </g>
    <g id="ytick_17">
     <g id="line2d_105">
      <path clip-path="url(#p17f726cb55)" d="M 57.6 223.9488 
L 414.72 223.9488 
" style="fill:none;stroke:#808080;stroke-dasharray:1.85,0.8;stroke-dashoffset:0;stroke-width:0.5;"/>
     </g>
     <g id="line2d_106">
      <g>
       <use style="stroke:#000000;stroke-width:0.6;" x="57.6" xlink:href="#m09b114e67f" y="223.9488"/>
      </g>
     </g>
    </g>
    <g id="ytick_18">
     <g id="line2d_107">
      <path clip-path="url(#p17f726cb55)" d="M 57.6 216.3456 
L 414.72 216.3456 
" style="fill:none;stroke:#808080;stroke-dasharray:1.85,0.8;stroke-dashoffset:0;stroke-width:0.5;"/>
     </g>
     <g id="line2d_108">
      <g>
       <use style="stroke:#000000;stroke-width:0.6;" x="57.6" xlink:href="#m09b114e67f" y="216.3456"/>
      </g>
     </g>
    </g>
    <g id="ytick_19">
     <g id="line2d_109">
      <path clip-path="url(#p17f726cb55)" d="M 57.6 208.7424 
L 414.72 208.7424 
" style="fill:none;stroke:#808080;stroke-dasharray:1.85,0.8;stroke-dashoffset:0;stroke-width:0.5;"/>
     </g>
     <g id="line2d_110">
      <g>
       <use style="stroke:#000000;stroke-width:0.6;" x="57.6" xlink:href="#m09b114e67f" y="208.7424"/>
      </g>
     </g>
    </g>
    <g id="ytick_20">
     <g id="line2d_111">
      <path clip-path="url(#p17f726cb55)" d="M 57.6 201.1392 
L 414.72 201.1392 
" style="fill:none;stroke:#808080;stroke-dasharray:1.85,0.8;stroke-dashoffset:0;stroke-width:0.5;"/>
     </g>
     <g id="line2d_112">
      <g>
       <use style="stroke:#000000;stroke-width:0.6;" x="57.6" xlink:href="#m09b114e67f" y="201.1392"/>
      </g>
     </g>
    </g>
    <g id="ytick_21">
     <g id="line2d_113">
      <path clip-path="url(#p17f726cb55)" d="M 57.6 185.9328 
L 414.72 185.9328 
" style="fill:none;stroke:#808080;stroke-dasharray:1.85,0.8;stroke-dashoffset:0;stroke-width:0.5;"/>
     </g>
     <g id="line2d_114">
      <g>
       <use style="stroke:#000000;stroke-width:0.6;" x="57.6" xlink:href="#m09b114e67f" y="185.9328"/>
      </g>
     </g>
    </g>
    <g id="ytick_22">
     <g id="line2d_115">
      <path clip-path="url(#p17f726cb55)" d="M 57.6 178.3296 
L 414.72 178.3296 
" style="fill:none;stroke:#808080;stroke-dasharray:1.85,0.8;stroke-dashoffset:0;stroke-width:0.5;"/>
     </g>
     <g id="line2d_116">
      <g>
       <use style="stroke:#000000;stroke-width:0.6;" x="57.6" xlink:href="#m09b114e67f" y="178.3296"/>
      </g>
     </g>
    </g>
    <g id="ytick_23">
     <g id="line2d_117">
      <path clip-path="url(#p17f726cb55)" d="M 57.6 170.7264 
L 414.72 170.7264 
" style="fill:none;stroke:#808080;stroke-dasharray:1.85,0.8;stroke-dashoffset:0;stroke-width:0.5;"/>
     </g>
     <g id="line2d_118">
      <g>
       <use style="stroke:#000000;stroke-width:0.6;" x="57.6" xlink:href="#m09b114e67f" y="170.7264"/>
      </g>
     </g>
    </g>
    <g id="ytick_24">
     <g id="line2d_119">
      <path clip-path="url(#p17f726cb55)" d="M 57.6 163.1232 
L 414.72 163.1232 
" style="fill:none;stroke:#808080;stroke-dasharray:1.85,0.8;stroke-dashoffset:0;stroke-width:0.5;"/>
     </g>
     <g id="line2d_120">
      <g>
       <use style="stroke:#000000;stroke-width:0.6;" x="57.6" xlink:href="#m09b114e67f" y="163.1232"/>
      </g>
     </g>
    </g>
    <g id="ytick_25">
     <g id="line2d_121">
      <path clip-path="url(#p17f726cb55)" d="M 57.6 147.9168 
L 414.72 147.9168 
" style="fill:none;stroke:#808080;stroke-dasharray:1.85,0.8;stroke-dashoffset:0;stroke-width:0.5;"/>
     </g>
     <g id="line2d_122">
      <g>
       <use style="stroke:#000000;stroke-width:0.6;" x="57.6" xlink:href="#m09b114e67f" y="147.9168"/>
      </g>
     </g>
    </g>
    <g id="ytick_26">
     <g id="line2d_123">
      <path clip-path="url(#p17f726cb55)" d="M 57.6 140.3136 
L 414.72 140.3136 
" style="fill:none;stroke:#808080;stroke-dasharray:1.85,0.8;stroke-dashoffset:0;stroke-width:0.5;"/>
     </g>
     <g id="line2d_124">
      <g>
       <use style="stroke:#000000;stroke-width:0.6;" x="57.6" xlink:href="#m09b114e67f" y="140.3136"/>
      </g>
     </g>
    </g>
    <g id="ytick_27">
     <g id="line2d_125">
      <path clip-path="url(#p17f726cb55)" d="M 57.6 132.7104 
L 414.72 132.7104 
" style="fill:none;stroke:#808080;stroke-dasharray:1.85,0.8;stroke-dashoffset:0;stroke-width:0.5;"/>
     </g>
     <g id="line2d_126">
      <g>
       <use style="stroke:#000000;stroke-width:0.6;" x="57.6" xlink:href="#m09b114e67f" y="132.7104"/>
      </g>
     </g>
    </g>
    <g id="ytick_28">
     <g id="line2d_127">
      <path clip-path="url(#p17f726cb55)" d="M 57.6 125.1072 
L 414.72 125.1072 
" style="fill:none;stroke:#808080;stroke-dasharray:1.85,0.8;stroke-dashoffset:0;stroke-width:0.5;"/>
     </g>
     <g id="line2d_128">
      <g>
       <use style="stroke:#000000;stroke-width:0.6;" x="57.6" xlink:href="#m09b114e67f" y="125.1072"/>
      </g>
     </g>
    </g>
    <g id="ytick_29">
     <g id="line2d_129">
      <path clip-path="url(#p17f726cb55)" d="M 57.6 109.9008 
L 414.72 109.9008 
" style="fill:none;stroke:#808080;stroke-dasharray:1.85,0.8;stroke-dashoffset:0;stroke-width:0.5;"/>
     </g>
     <g id="line2d_130">
      <g>
       <use style="stroke:#000000;stroke-width:0.6;" x="57.6" xlink:href="#m09b114e67f" y="109.9008"/>
      </g>
     </g>
    </g>
    <g id="ytick_30">
     <g id="line2d_131">
      <path clip-path="url(#p17f726cb55)" d="M 57.6 102.2976 
L 414.72 102.2976 
" style="fill:none;stroke:#808080;stroke-dasharray:1.85,0.8;stroke-dashoffset:0;stroke-width:0.5;"/>
     </g>
     <g id="line2d_132">
      <g>
       <use style="stroke:#000000;stroke-width:0.6;" x="57.6" xlink:href="#m09b114e67f" y="102.2976"/>
      </g>
     </g>
    </g>
    <g id="ytick_31">
     <g id="line2d_133">
      <path clip-path="url(#p17f726cb55)" d="M 57.6 94.6944 
L 414.72 94.6944 
" style="fill:none;stroke:#808080;stroke-dasharray:1.85,0.8;stroke-dashoffset:0;stroke-width:0.5;"/>
     </g>
     <g id="line2d_134">
      <g>
       <use style="stroke:#000000;stroke-width:0.6;" x="57.6" xlink:href="#m09b114e67f" y="94.6944"/>
      </g>
     </g>
    </g>
    <g id="ytick_32">
     <g id="line2d_135">
      <path clip-path="url(#p17f726cb55)" d="M 57.6 87.0912 
L 414.72 87.0912 
" style="fill:none;stroke:#808080;stroke-dasharray:1.85,0.8;stroke-dashoffset:0;stroke-width:0.5;"/>
     </g>
     <g id="line2d_136">
      <g>
       <use style="stroke:#000000;stroke-width:0.6;" x="57.6" xlink:href="#m09b114e67f" y="87.0912"/>
      </g>
     </g>
    </g>
    <g id="ytick_33">
     <g id="line2d_137">
      <path clip-path="url(#p17f726cb55)" d="M 57.6 71.8848 
L 414.72 71.8848 
" style="fill:none;stroke:#808080;stroke-dasharray:1.85,0.8;stroke-dashoffset:0;stroke-width:0.5;"/>
     </g>
     <g id="line2d_138">
      <g>
       <use style="stroke:#000000;stroke-width:0.6;" x="57.6" xlink:href="#m09b114e67f" y="71.8848"/>
      </g>
     </g>
    </g>
    <g id="ytick_34">
     <g id="line2d_139">
      <path clip-path="url(#p17f726cb55)" d="M 57.6 64.2816 
L 414.72 64.2816 
" style="fill:none;stroke:#808080;stroke-dasharray:1.85,0.8;stroke-dashoffset:0;stroke-width:0.5;"/>
     </g>
     <g id="line2d_140">
      <g>
       <use style="stroke:#000000;stroke-width:0.6;" x="57.6" xlink:href="#m09b114e67f" y="64.2816"/>
      </g>
     </g>
    </g>
    <g id="ytick_35">
     <g id="line2d_141">
      <path clip-path="url(#p17f726cb55)" d="M 57.6 56.6784 
L 414.72 56.6784 
" style="fill:none;stroke:#808080;stroke-dasharray:1.85,0.8;stroke-dashoffset:0;stroke-width:0.5;"/>
     </g>
     <g id="line2d_142">
      <g>
       <use style="stroke:#000000;stroke-width:0.6;" x="57.6" xlink:href="#m09b114e67f" y="56.6784"/>
      </g>
     </g>
    </g>
    <g id="ytick_36">
     <g id="line2d_143">
      <path clip-path="url(#p17f726cb55)" d="M 57.6 49.0752 
L 414.72 49.0752 
" style="fill:none;stroke:#808080;stroke-dasharray:1.85,0.8;stroke-dashoffset:0;stroke-width:0.5;"/>
     </g>
     <g id="line2d_144">
      <g>
       <use style="stroke:#000000;stroke-width:0.6;" x="57.6" xlink:href="#m09b114e67f" y="49.0752"/>
      </g>
     </g>
    </g>
    <g id="text_18">
     <!-- Voltage, V -->
     <g transform="translate(28.617187 199.882688)rotate(-90)scale(0.1 -0.1)">
      <defs>
       <path d="M 1831 0 
L 50 4666 
L 709 4666 
L 2188 738 
L 3669 4666 
L 4325 4666 
L 2547 0 
L 1831 0 
z
" id="DejaVuSans-56" transform="scale(0.015625)"/>
       <path d="M 1959 3097 
Q 1497 3097 1228 2736 
Q 959 2375 959 1747 
Q 959 1119 1226 758 
Q 1494 397 1959 397 
Q 2419 397 2687 759 
Q 2956 1122 2956 1747 
Q 2956 2369 2687 2733 
Q 2419 3097 1959 3097 
z
M 1959 3584 
Q 2709 3584 3137 3096 
Q 3566 2609 3566 1747 
Q 3566 888 3137 398 
Q 2709 -91 1959 -91 
Q 1206 -91 779 398 
Q 353 888 353 1747 
Q 353 2609 779 3096 
Q 1206 3584 1959 3584 
z
" id="DejaVuSans-6f" transform="scale(0.015625)"/>
       <path d="M 603 4863 
L 1178 4863 
L 1178 0 
L 603 0 
L 603 4863 
z
" id="DejaVuSans-6c" transform="scale(0.015625)"/>
       <path d="M 1172 4494 
L 1172 3500 
L 2356 3500 
L 2356 3053 
L 1172 3053 
L 1172 1153 
Q 1172 725 1289 603 
Q 1406 481 1766 481 
L 2356 481 
L 2356 0 
L 1766 0 
Q 1100 0 847 248 
Q 594 497 594 1153 
L 594 3053 
L 172 3053 
L 172 3500 
L 594 3500 
L 594 4494 
L 1172 4494 
z
" id="DejaVuSans-74" transform="scale(0.015625)"/>
       <path d="M 2194 1759 
Q 1497 1759 1228 1600 
Q 959 1441 959 1056 
Q 959 750 1161 570 
Q 1363 391 1709 391 
Q 2188 391 2477 730 
Q 2766 1069 2766 1631 
L 2766 1759 
L 2194 1759 
z
M 3341 1997 
L 3341 0 
L 2766 0 
L 2766 531 
Q 2569 213 2275 61 
Q 1981 -91 1556 -91 
Q 1019 -91 701 211 
Q 384 513 384 1019 
Q 384 1609 779 1909 
Q 1175 2209 1959 2209 
L 2766 2209 
L 2766 2266 
Q 2766 2663 2505 2880 
Q 2244 3097 1772 3097 
Q 1472 3097 1187 3025 
Q 903 2953 641 2809 
L 641 3341 
Q 956 3463 1253 3523 
Q 1550 3584 1831 3584 
Q 2591 3584 2966 3190 
Q 3341 2797 3341 1997 
z
" id="DejaVuSans-61" transform="scale(0.015625)"/>
       <path d="M 2906 1791 
Q 2906 2416 2648 2759 
Q 2391 3103 1925 3103 
Q 1463 3103 1205 2759 
Q 947 2416 947 1791 
Q 947 1169 1205 825 
Q 1463 481 1925 481 
Q 2391 481 2648 825 
Q 2906 1169 2906 1791 
z
M 3481 434 
Q 3481 -459 3084 -895 
Q 2688 -1331 1869 -1331 
Q 1566 -1331 1297 -1286 
Q 1028 -1241 775 -1147 
L 775 -588 
Q 1028 -725 1275 -790 
Q 1522 -856 1778 -856 
Q 2344 -856 2625 -561 
Q 2906 -266 2906 331 
L 2906 616 
Q 2728 306 2450 153 
Q 2172 0 1784 0 
Q 1141 0 747 490 
Q 353 981 353 1791 
Q 353 2603 747 3093 
Q 1141 3584 1784 3584 
Q 2172 3584 2450 3431 
Q 2728 3278 2906 2969 
L 2906 3500 
L 3481 3500 
L 3481 434 
z
" id="DejaVuSans-67" transform="scale(0.015625)"/>
      </defs>
      <use xlink:href="#DejaVuSans-56"/>
      <use x="60.658203" xlink:href="#DejaVuSans-6f"/>
      <use x="121.839844" xlink:href="#DejaVuSans-6c"/>
      <use x="149.623047" xlink:href="#DejaVuSans-74"/>
      <use x="188.832031" xlink:href="#DejaVuSans-61"/>
      <use x="250.111328" xlink:href="#DejaVuSans-67"/>
      <use x="313.587891" xlink:href="#DejaVuSans-65"/>
      <use x="375.111328" xlink:href="#DejaVuSans-2c"/>
      <use x="406.898438" xlink:href="#DejaVuSans-20"/>
      <use x="438.685547" xlink:href="#DejaVuSans-56"/>
     </g>
    </g>
   </g>
   <g id="line2d_145">
    <path clip-path="url(#p17f726cb55)" d="M 57.6 306.572284 
L 57.941815 302.525419 
L 58.967259 296.455123 
L 59.309074 292.408258 
L 59.992704 288.361394 
L 60.334519 284.314529 
L 60.676334 284.314529 
L 61.018149 280.267665 
L 61.359963 280.267665 
L 61.701778 276.2208 
L 62.043593 276.2208 
L 62.385408 270.150503 
L 66.829001 243.845884 
L 67.170816 243.845884 
L 67.512631 239.799019 
L 68.87989 231.70529 
L 69.221705 231.70529 
L 69.56352 227.658426 
L 69.905335 227.658426 
L 72.639854 211.470968 
L 72.981669 211.470968 
L 74.348928 203.377239 
L 74.690743 203.377239 
L 76.058002 195.28351 
L 76.399817 195.28351 
L 77.083447 191.236645 
L 77.425262 191.236645 
L 78.108891 187.189781 
L 78.450706 187.189781 
L 79.134336 183.142916 
L 79.476151 183.142916 
L 80.159781 179.096052 
L 80.84341 179.096052 
L 81.185225 175.049187 
L 81.52704 175.049187 
L 81.868855 173.025755 
L 82.21067 173.025755 
L 82.894299 168.97889 
L 83.236114 168.97889 
L 83.577929 166.955458 
L 83.919744 166.955458 
L 84.603374 162.908594 
L 85.287003 162.908594 
L 85.970633 158.861729 
L 86.654263 158.861729 
L 87.337893 154.814865 
L 87.679707 154.814865 
L 88.021522 152.791432 
L 88.363337 152.791432 
L 88.705152 150.768 
L 89.046967 150.768 
L 89.388782 148.744568 
L 89.730597 148.744568 
L 90.072411 146.721135 
L 91.097856 146.721135 
L 91.439671 142.674271 
L 92.123301 142.674271 
L 92.465115 140.650839 
L 92.80693 140.650839 
L 93.148745 138.627406 
L 93.832375 138.627406 
L 94.17419 136.603974 
L 94.516005 136.603974 
L 94.857819 134.580542 
L 95.199634 134.580542 
L 95.541449 132.55711 
L 96.566894 132.55711 
L 97.250523 128.510245 
L 97.934153 128.510245 
L 98.275968 126.486813 
L 98.959598 126.486813 
L 99.301413 124.463381 
L 99.643227 124.463381 
L 99.985042 122.439948 
L 101.010487 122.439948 
L 101.352302 120.416516 
L 101.694117 120.416516 
L 102.035931 118.393084 
L 102.719561 118.393084 
L 103.061376 116.369652 
L 104.086821 116.369652 
L 104.77045 112.322787 
L 106.821339 112.322787 
L 107.504969 108.275923 
L 108.872229 108.275923 
L 109.214043 106.25249 
L 110.239488 106.25249 
L 110.581303 104.229058 
L 111.264933 104.229058 
L 111.606747 102.205626 
L 112.290377 102.205626 
L 112.632192 100.182194 
L 113.999451 100.182194 
L 114.341266 98.158761 
L 115.708526 98.158761 
L 116.050341 96.135329 
L 117.4176 96.135329 
L 117.759415 94.111897 
L 119.126674 94.111897 
L 119.468489 92.088465 
L 120.152119 92.088465 
L 120.493934 90.065032 
L 120.835749 92.088465 
L 121.177563 90.065032 
L 122.203008 90.065032 
L 122.544823 88.0416 
L 124.937527 88.0416 
L 125.279342 86.018168 
L 126.988416 86.018168 
L 127.330231 83.994735 
L 129.039305 83.994735 
L 129.38112 81.971303 
L 130.748379 81.971303 
L 131.090194 79.947871 
L 134.850158 79.947871 
L 135.191973 77.924439 
L 137.926491 77.924439 
L 138.268306 75.901006 
L 138.610121 77.924439 
L 138.951936 75.901006 
L 140.66101 75.901006 
L 141.002825 73.877574 
L 141.34464 75.901006 
L 141.686455 73.877574 
L 144.762789 73.877574 
L 145.104603 71.854142 
L 148.180937 71.854142 
L 148.522752 69.83071 
L 151.599086 69.83071 
L 151.940901 67.807277 
L 152.282715 69.83071 
L 152.62453 69.83071 
L 152.966345 67.807277 
L 156.042679 67.807277 
L 156.384494 65.783845 
L 156.726309 67.807277 
L 157.068123 67.807277 
L 157.409938 65.783845 
L 157.751753 67.807277 
L 158.093568 67.807277 
L 158.435383 65.783845 
L 161.169902 65.783845 
L 161.511717 63.760413 
L 161.853531 65.783845 
L 162.195346 65.783845 
L 162.537161 63.760413 
L 162.878976 63.760413 
L 163.220791 65.783845 
L 164.246235 65.783845 
L 164.58805 63.760413 
L 171.082533 63.760413 
L 171.424347 61.736981 
L 171.766162 63.760413 
L 172.107977 61.736981 
L 179.627904 61.736981 
L 179.969719 59.713548 
L 180.311534 59.713548 
L 180.653349 61.736981 
L 180.995163 61.736981 
L 181.336978 59.713548 
L 181.678793 59.713548 
L 182.020608 61.736981 
L 182.362423 59.713548 
L 188.173275 59.713548 
L 188.51509 57.690116 
L 188.856905 61.736981 
L 189.19872 63.760413 
L 189.540535 63.760413 
L 189.88235 67.807277 
L 190.565979 71.854142 
L 190.907794 75.901006 
L 191.249609 75.901006 
L 191.591424 79.947871 
L 191.933239 79.947871 
L 192.275054 83.994735 
L 192.958683 88.0416 
L 193.300498 88.0416 
L 193.642313 92.088465 
L 193.984128 92.088465 
L 197.402277 112.322787 
L 197.744091 112.322787 
L 199.453166 122.439948 
L 199.794981 122.439948 
L 200.136795 126.486813 
L 200.47861 126.486813 
L 200.820425 128.510245 
L 201.16224 128.510245 
L 202.871314 138.627406 
L 203.213129 138.627406 
L 204.580389 146.721135 
L 204.922203 146.721135 
L 205.605833 150.768 
L 205.947648 150.768 
L 206.289463 152.791432 
L 206.631278 152.791432 
L 207.656722 158.861729 
L 207.998537 158.861729 
L 208.340352 160.885161 
L 208.682167 160.885161 
L 209.365797 164.932026 
L 209.707611 164.932026 
L 210.391241 168.97889 
L 210.733056 168.97889 
L 211.074871 171.002323 
L 211.416686 171.002323 
L 211.758501 173.025755 
L 212.100315 173.025755 
L 212.44213 175.049187 
L 212.783945 175.049187 
L 213.12576 177.072619 
L 213.467575 177.072619 
L 213.80939 179.096052 
L 214.151205 179.096052 
L 214.493019 181.119484 
L 214.834834 181.119484 
L 215.518464 185.166348 
L 216.202094 185.166348 
L 216.543909 187.189781 
L 216.885723 187.189781 
L 217.227538 189.213213 
L 217.569353 189.213213 
L 218.252983 193.260077 
L 218.936613 193.260077 
L 219.278427 195.28351 
L 219.620242 195.28351 
L 219.962057 197.306942 
L 220.303872 197.306942 
L 220.645687 199.330374 
L 220.987502 199.330374 
L 221.329317 201.353806 
L 222.012946 201.353806 
L 222.354761 203.377239 
L 222.696576 203.377239 
L 223.038391 205.400671 
L 223.380206 205.400671 
L 223.722021 207.424103 
L 224.063835 207.424103 
L 224.40565 209.447535 
L 225.431095 209.447535 
L 226.114725 213.4944 
L 226.798354 213.4944 
L 227.140169 215.517832 
L 227.481984 215.517832 
L 227.823799 217.541265 
L 228.849243 217.541265 
L 229.191058 219.564697 
L 229.532873 219.564697 
L 229.874688 221.588129 
L 230.558318 221.588129 
L 230.900133 223.611561 
L 231.241947 223.611561 
L 231.583762 225.634994 
L 232.267392 225.634994 
L 232.609207 227.658426 
L 233.634651 227.658426 
L 233.976466 229.681858 
L 234.660096 229.681858 
L 235.001911 231.70529 
L 235.685541 231.70529 
L 236.027355 233.728723 
L 237.0528 233.728723 
L 237.394615 235.752155 
L 237.73643 235.752155 
L 238.078245 237.775587 
L 239.103689 237.775587 
L 239.445504 239.799019 
L 240.129134 239.799019 
L 240.470949 241.822452 
L 240.812763 241.822452 
L 241.154578 243.845884 
L 243.205467 243.845884 
L 243.547282 245.869316 
L 244.230912 245.869316 
L 244.572727 247.892748 
L 245.256357 247.892748 
L 245.598171 249.916181 
L 246.965431 249.916181 
L 247.307246 251.939613 
L 248.33269 251.939613 
L 248.674505 253.963045 
L 249.358135 253.963045 
L 249.69995 255.986477 
L 251.067209 255.986477 
L 251.409024 258.00991 
L 252.776283 258.00991 
L 253.118098 260.033342 
L 253.459913 258.00991 
L 253.801728 260.033342 
L 254.485358 260.033342 
L 254.827173 262.056774 
L 256.194432 262.056774 
L 256.536247 264.080206 
L 257.903506 264.080206 
L 258.245321 266.103639 
L 259.612581 266.103639 
L 259.954395 268.127071 
L 262.005285 268.127071 
L 262.347099 270.150503 
L 263.714359 270.150503 
L 264.056174 272.173935 
L 265.423433 272.173935 
L 265.765248 274.197368 
L 266.107063 272.173935 
L 266.448878 274.197368 
L 267.474322 274.197368 
L 267.816137 276.2208 
L 271.234286 276.2208 
L 271.576101 278.244232 
L 273.968805 278.244232 
L 274.310619 280.267665 
L 276.019694 280.267665 
L 276.361509 282.291097 
L 279.437842 282.291097 
L 279.779657 284.314529 
L 283.197806 284.314529 
L 283.539621 286.337961 
L 286.274139 286.337961 
L 286.615954 288.361394 
L 286.957769 286.337961 
L 287.299584 288.361394 
L 291.059547 288.361394 
L 291.401362 290.384826 
L 294.477696 290.384826 
L 294.819511 292.408258 
L 300.288549 292.408258 
L 300.630363 294.43169 
L 306.099401 294.43169 
L 306.441216 296.455123 
L 306.783031 294.43169 
L 307.124846 296.455123 
L 312.593883 296.455123 
L 312.935698 298.478555 
L 320.11381 298.478555 
L 320.455625 300.501987 
L 320.79744 298.478555 
L 321.822885 298.478555 
L 322.164699 300.501987 
L 322.506514 300.501987 
L 322.848329 298.478555 
L 323.190144 300.501987 
L 330.026441 300.501987 
L 330.368256 302.525419 
L 330.710071 300.501987 
L 333.44459 300.501987 
L 333.786405 302.525419 
L 334.470034 302.525419 
L 334.811849 300.501987 
L 335.153664 302.525419 
L 344.382665 302.525419 
L 344.72448 304.548852 
L 345.066295 302.525419 
L 345.749925 302.525419 
L 346.091739 304.548852 
L 363.866112 304.548852 
L 364.207927 306.572284 
L 364.207927 306.572284 
" style="fill:none;stroke:#dc143c;stroke-linecap:square;"/>
   </g>
   <g id="patch_3">
    <path d="M 57.6 307.584 
L 57.6 41.472 
" style="fill:none;stroke:#000000;stroke-linecap:square;stroke-linejoin:miter;stroke-width:0.8;"/>
   </g>
   <g id="patch_4">
    <path d="M 414.72 307.584 
L 414.72 41.472 
" style="fill:none;stroke:#000000;stroke-linecap:square;stroke-linejoin:miter;stroke-width:0.8;"/>
   </g>
   <g id="patch_5">
    <path d="M 57.6 307.584 
L 414.72 307.584 
" style="fill:none;stroke:#000000;stroke-linecap:square;stroke-linejoin:miter;stroke-width:0.8;"/>
   </g>
   <g id="patch_6">
    <path d="M 57.6 41.472 
L 414.72 41.472 
" style="fill:none;stroke:#000000;stroke-linecap:square;stroke-linejoin:miter;stroke-width:0.8;"/>
   </g>
   <g id="text_19">
    <!-- Charging time = 5.13 s -->
    <g transform="translate(261.668571 140.3136)scale(0.1 -0.1)">
     <defs>
      <path d="M 4122 4306 
L 4122 3641 
Q 3803 3938 3442 4084 
Q 3081 4231 2675 4231 
Q 1875 4231 1450 3742 
Q 1025 3253 1025 2328 
Q 1025 1406 1450 917 
Q 1875 428 2675 428 
Q 3081 428 3442 575 
Q 3803 722 4122 1019 
L 4122 359 
Q 3791 134 3420 21 
Q 3050 -91 2638 -91 
Q 1578 -91 968 557 
Q 359 1206 359 2328 
Q 359 3453 968 4101 
Q 1578 4750 2638 4750 
Q 3056 4750 3426 4639 
Q 3797 4528 4122 4306 
z
" id="DejaVuSans-43" transform="scale(0.015625)"/>
      <path d="M 3513 2113 
L 3513 0 
L 2938 0 
L 2938 2094 
Q 2938 2591 2744 2837 
Q 2550 3084 2163 3084 
Q 1697 3084 1428 2787 
Q 1159 2491 1159 1978 
L 1159 0 
L 581 0 
L 581 4863 
L 1159 4863 
L 1159 2956 
Q 1366 3272 1645 3428 
Q 1925 3584 2291 3584 
Q 2894 3584 3203 3211 
Q 3513 2838 3513 2113 
z
" id="DejaVuSans-68" transform="scale(0.015625)"/>
      <path d="M 2631 2963 
Q 2534 3019 2420 3045 
Q 2306 3072 2169 3072 
Q 1681 3072 1420 2755 
Q 1159 2438 1159 1844 
L 1159 0 
L 581 0 
L 581 3500 
L 1159 3500 
L 1159 2956 
Q 1341 3275 1631 3429 
Q 1922 3584 2338 3584 
Q 2397 3584 2469 3576 
Q 2541 3569 2628 3553 
L 2631 2963 
z
" id="DejaVuSans-72" transform="scale(0.015625)"/>
      <path d="M 3513 2113 
L 3513 0 
L 2938 0 
L 2938 2094 
Q 2938 2591 2744 2837 
Q 2550 3084 2163 3084 
Q 1697 3084 1428 2787 
Q 1159 2491 1159 1978 
L 1159 0 
L 581 0 
L 581 3500 
L 1159 3500 
L 1159 2956 
Q 1366 3272 1645 3428 
Q 1925 3584 2291 3584 
Q 2894 3584 3203 3211 
Q 3513 2838 3513 2113 
z
" id="DejaVuSans-6e" transform="scale(0.015625)"/>
      <path d="M 678 2906 
L 4684 2906 
L 4684 2381 
L 678 2381 
L 678 2906 
z
M 678 1631 
L 4684 1631 
L 4684 1100 
L 678 1100 
L 678 1631 
z
" id="DejaVuSans-3d" transform="scale(0.015625)"/>
     </defs>
     <use xlink:href="#DejaVuSans-43"/>
     <use x="69.824219" xlink:href="#DejaVuSans-68"/>
     <use x="133.203125" xlink:href="#DejaVuSans-61"/>
     <use x="194.482422" xlink:href="#DejaVuSans-72"/>
     <use x="233.845703" xlink:href="#DejaVuSans-67"/>
     <use x="297.322266" xlink:href="#DejaVuSans-69"/>
     <use x="325.105469" xlink:href="#DejaVuSans-6e"/>
     <use x="388.484375" xlink:href="#DejaVuSans-67"/>
     <use x="451.960938" xlink:href="#DejaVuSans-20"/>
     <use x="483.748047" xlink:href="#DejaVuSans-74"/>
     <use x="522.957031" xlink:href="#DejaVuSans-69"/>
     <use x="550.740234" xlink:href="#DejaVuSans-6d"/>
     <use x="648.152344" xlink:href="#DejaVuSans-65"/>
     <use x="709.675781" xlink:href="#DejaVuSans-20"/>
     <use x="741.462891" xlink:href="#DejaVuSans-3d"/>
     <use x="825.251953" xlink:href="#DejaVuSans-20"/>
     <use x="857.039062" xlink:href="#DejaVuSans-35"/>
     <use x="920.662109" xlink:href="#DejaVuSans-2e"/>
     <use x="952.449219" xlink:href="#DejaVuSans-31"/>
     <use x="1016.072266" xlink:href="#DejaVuSans-33"/>
     <use x="1079.695312" xlink:href="#DejaVuSans-20"/>
     <use x="1111.482422" xlink:href="#DejaVuSans-73"/>
    </g>
   </g>
   <g id="text_20">
    <!-- Discharging time = 6.89 s -->
    <g transform="translate(261.668571 178.3296)scale(0.1 -0.1)">
     <defs>
      <path d="M 1259 4147 
L 1259 519 
L 2022 519 
Q 2988 519 3436 956 
Q 3884 1394 3884 2338 
Q 3884 3275 3436 3711 
Q 2988 4147 2022 4147 
L 1259 4147 
z
M 628 4666 
L 1925 4666 
Q 3281 4666 3915 4102 
Q 4550 3538 4550 2338 
Q 4550 1131 3912 565 
Q 3275 0 1925 0 
L 628 0 
L 628 4666 
z
" id="DejaVuSans-44" transform="scale(0.015625)"/>
      <path d="M 3122 3366 
L 3122 2828 
Q 2878 2963 2633 3030 
Q 2388 3097 2138 3097 
Q 1578 3097 1268 2742 
Q 959 2388 959 1747 
Q 959 1106 1268 751 
Q 1578 397 2138 397 
Q 2388 397 2633 464 
Q 2878 531 3122 666 
L 3122 134 
Q 2881 22 2623 -34 
Q 2366 -91 2075 -91 
Q 1284 -91 818 406 
Q 353 903 353 1747 
Q 353 2603 823 3093 
Q 1294 3584 2113 3584 
Q 2378 3584 2631 3529 
Q 2884 3475 3122 3366 
z
" id="DejaVuSans-63" transform="scale(0.015625)"/>
      <path d="M 703 97 
L 703 672 
Q 941 559 1184 500 
Q 1428 441 1663 441 
Q 2288 441 2617 861 
Q 2947 1281 2994 2138 
Q 2813 1869 2534 1725 
Q 2256 1581 1919 1581 
Q 1219 1581 811 2004 
Q 403 2428 403 3163 
Q 403 3881 828 4315 
Q 1253 4750 1959 4750 
Q 2769 4750 3195 4129 
Q 3622 3509 3622 2328 
Q 3622 1225 3098 567 
Q 2575 -91 1691 -91 
Q 1453 -91 1209 -44 
Q 966 3 703 97 
z
M 1959 2075 
Q 2384 2075 2632 2365 
Q 2881 2656 2881 3163 
Q 2881 3666 2632 3958 
Q 2384 4250 1959 4250 
Q 1534 4250 1286 3958 
Q 1038 3666 1038 3163 
Q 1038 2656 1286 2365 
Q 1534 2075 1959 2075 
z
" id="DejaVuSans-39" transform="scale(0.015625)"/>
     </defs>
     <use xlink:href="#DejaVuSans-44"/>
     <use x="77.001953" xlink:href="#DejaVuSans-69"/>
     <use x="104.785156" xlink:href="#DejaVuSans-73"/>
     <use x="156.884766" xlink:href="#DejaVuSans-63"/>
     <use x="211.865234" xlink:href="#DejaVuSans-68"/>
     <use x="275.244141" xlink:href="#DejaVuSans-61"/>
     <use x="336.523438" xlink:href="#DejaVuSans-72"/>
     <use x="375.886719" xlink:href="#DejaVuSans-67"/>
     <use x="439.363281" xlink:href="#DejaVuSans-69"/>
     <use x="467.146484" xlink:href="#DejaVuSans-6e"/>
     <use x="530.525391" xlink:href="#DejaVuSans-67"/>
     <use x="594.001953" xlink:href="#DejaVuSans-20"/>
     <use x="625.789062" xlink:href="#DejaVuSans-74"/>
     <use x="664.998047" xlink:href="#DejaVuSans-69"/>
     <use x="692.78125" xlink:href="#DejaVuSans-6d"/>
     <use x="790.193359" xlink:href="#DejaVuSans-65"/>
     <use x="851.716797" xlink:href="#DejaVuSans-20"/>
     <use x="883.503906" xlink:href="#DejaVuSans-3d"/>
     <use x="967.292969" xlink:href="#DejaVuSans-20"/>
     <use x="999.080078" xlink:href="#DejaVuSans-36"/>
     <use x="1062.703125" xlink:href="#DejaVuSans-2e"/>
     <use x="1094.490234" xlink:href="#DejaVuSans-38"/>
     <use x="1158.113281" xlink:href="#DejaVuSans-39"/>
     <use x="1221.736328" xlink:href="#DejaVuSans-20"/>
     <use x="1253.523438" xlink:href="#DejaVuSans-73"/>
    </g>
   </g>
   <g id="text_21">
    <!-- Charging and discharging of capacitor in RC-circuit -->
    <g transform="translate(83.670938 31.472)scale(0.12 -0.12)">
     <defs>
      <path d="M 2906 2969 
L 2906 4863 
L 3481 4863 
L 3481 0 
L 2906 0 
L 2906 525 
Q 2725 213 2448 61 
Q 2172 -91 1784 -91 
Q 1150 -91 751 415 
Q 353 922 353 1747 
Q 353 2572 751 3078 
Q 1150 3584 1784 3584 
Q 2172 3584 2448 3432 
Q 2725 3281 2906 2969 
z
M 947 1747 
Q 947 1113 1208 752 
Q 1469 391 1925 391 
Q 2381 391 2643 752 
Q 2906 1113 2906 1747 
Q 2906 2381 2643 2742 
Q 2381 3103 1925 3103 
Q 1469 3103 1208 2742 
Q 947 2381 947 1747 
z
" id="DejaVuSans-64" transform="scale(0.015625)"/>
      <path d="M 2375 4863 
L 2375 4384 
L 1825 4384 
Q 1516 4384 1395 4259 
Q 1275 4134 1275 3809 
L 1275 3500 
L 2222 3500 
L 2222 3053 
L 1275 3053 
L 1275 0 
L 697 0 
L 697 3053 
L 147 3053 
L 147 3500 
L 697 3500 
L 697 3744 
Q 697 4328 969 4595 
Q 1241 4863 1831 4863 
L 2375 4863 
z
" id="DejaVuSans-66" transform="scale(0.015625)"/>
      <path d="M 1159 525 
L 1159 -1331 
L 581 -1331 
L 581 3500 
L 1159 3500 
L 1159 2969 
Q 1341 3281 1617 3432 
Q 1894 3584 2278 3584 
Q 2916 3584 3314 3078 
Q 3713 2572 3713 1747 
Q 3713 922 3314 415 
Q 2916 -91 2278 -91 
Q 1894 -91 1617 61 
Q 1341 213 1159 525 
z
M 3116 1747 
Q 3116 2381 2855 2742 
Q 2594 3103 2138 3103 
Q 1681 3103 1420 2742 
Q 1159 2381 1159 1747 
Q 1159 1113 1420 752 
Q 1681 391 2138 391 
Q 2594 391 2855 752 
Q 3116 1113 3116 1747 
z
" id="DejaVuSans-70" transform="scale(0.015625)"/>
      <path d="M 2841 2188 
Q 3044 2119 3236 1894 
Q 3428 1669 3622 1275 
L 4263 0 
L 3584 0 
L 2988 1197 
Q 2756 1666 2539 1819 
Q 2322 1972 1947 1972 
L 1259 1972 
L 1259 0 
L 628 0 
L 628 4666 
L 2053 4666 
Q 2853 4666 3247 4331 
Q 3641 3997 3641 3322 
Q 3641 2881 3436 2590 
Q 3231 2300 2841 2188 
z
M 1259 4147 
L 1259 2491 
L 2053 2491 
Q 2509 2491 2742 2702 
Q 2975 2913 2975 3322 
Q 2975 3731 2742 3939 
Q 2509 4147 2053 4147 
L 1259 4147 
z
" id="DejaVuSans-52" transform="scale(0.015625)"/>
      <path d="M 313 2009 
L 1997 2009 
L 1997 1497 
L 313 1497 
L 313 2009 
z
" id="DejaVuSans-2d" transform="scale(0.015625)"/>
      <path d="M 544 1381 
L 544 3500 
L 1119 3500 
L 1119 1403 
Q 1119 906 1312 657 
Q 1506 409 1894 409 
Q 2359 409 2629 706 
Q 2900 1003 2900 1516 
L 2900 3500 
L 3475 3500 
L 3475 0 
L 2900 0 
L 2900 538 
Q 2691 219 2414 64 
Q 2138 -91 1772 -91 
Q 1169 -91 856 284 
Q 544 659 544 1381 
z
M 1991 3584 
L 1991 3584 
z
" id="DejaVuSans-75" transform="scale(0.015625)"/>
     </defs>
     <use xlink:href="#DejaVuSans-43"/>
     <use x="69.824219" xlink:href="#DejaVuSans-68"/>
     <use x="133.203125" xlink:href="#DejaVuSans-61"/>
     <use x="194.482422" xlink:href="#DejaVuSans-72"/>
     <use x="233.845703" xlink:href="#DejaVuSans-67"/>
     <use x="297.322266" xlink:href="#DejaVuSans-69"/>
     <use x="325.105469" xlink:href="#DejaVuSans-6e"/>
     <use x="388.484375" xlink:href="#DejaVuSans-67"/>
     <use x="451.960938" xlink:href="#DejaVuSans-20"/>
     <use x="483.748047" xlink:href="#DejaVuSans-61"/>
     <use x="545.027344" xlink:href="#DejaVuSans-6e"/>
     <use x="608.40625" xlink:href="#DejaVuSans-64"/>
     <use x="671.882812" xlink:href="#DejaVuSans-20"/>
     <use x="703.669922" xlink:href="#DejaVuSans-64"/>
     <use x="767.146484" xlink:href="#DejaVuSans-69"/>
     <use x="794.929688" xlink:href="#DejaVuSans-73"/>
     <use x="847.029297" xlink:href="#DejaVuSans-63"/>
     <use x="902.009766" xlink:href="#DejaVuSans-68"/>
     <use x="965.388672" xlink:href="#DejaVuSans-61"/>
     <use x="1026.667969" xlink:href="#DejaVuSans-72"/>
     <use x="1066.03125" xlink:href="#DejaVuSans-67"/>
     <use x="1129.507812" xlink:href="#DejaVuSans-69"/>
     <use x="1157.291016" xlink:href="#DejaVuSans-6e"/>
     <use x="1220.669922" xlink:href="#DejaVuSans-67"/>
     <use x="1284.146484" xlink:href="#DejaVuSans-20"/>
     <use x="1315.933594" xlink:href="#DejaVuSans-6f"/>
     <use x="1377.115234" xlink:href="#DejaVuSans-66"/>
     <use x="1412.320312" xlink:href="#DejaVuSans-20"/>
     <use x="1444.107422" xlink:href="#DejaVuSans-63"/>
     <use x="1499.087891" xlink:href="#DejaVuSans-61"/>
     <use x="1560.367188" xlink:href="#DejaVuSans-70"/>
     <use x="1623.84375" xlink:href="#DejaVuSans-61"/>
     <use x="1685.123047" xlink:href="#DejaVuSans-63"/>
     <use x="1740.103516" xlink:href="#DejaVuSans-69"/>
     <use x="1767.886719" xlink:href="#DejaVuSans-74"/>
     <use x="1807.095703" xlink:href="#DejaVuSans-6f"/>
     <use x="1868.277344" xlink:href="#DejaVuSans-72"/>
     <use x="1909.390625" xlink:href="#DejaVuSans-20"/>
     <use x="1941.177734" xlink:href="#DejaVuSans-69"/>
     <use x="1968.960938" xlink:href="#DejaVuSans-6e"/>
     <use x="2032.339844" xlink:href="#DejaVuSans-20"/>
     <use x="2064.126953" xlink:href="#DejaVuSans-52"/>
     <use x="2128.609375" xlink:href="#DejaVuSans-43"/>
     <use x="2198.433594" xlink:href="#DejaVuSans-2d"/>
     <use x="2234.517578" xlink:href="#DejaVuSans-63"/>
     <use x="2289.498047" xlink:href="#DejaVuSans-69"/>
     <use x="2317.28125" xlink:href="#DejaVuSans-72"/>
     <use x="2356.144531" xlink:href="#DejaVuSans-63"/>
     <use x="2411.125" xlink:href="#DejaVuSans-75"/>
     <use x="2474.503906" xlink:href="#DejaVuSans-69"/>
     <use x="2502.287109" xlink:href="#DejaVuSans-74"/>
    </g>
   </g>
   <g id="legend_1">
    <g id="patch_7">
     <path d="M 357.155938 64.150125 
L 407.72 64.150125 
Q 409.72 64.150125 409.72 62.150125 
L 409.72 48.472 
Q 409.72 46.472 407.72 46.472 
L 357.155938 46.472 
Q 355.155938 46.472 355.155938 48.472 
L 355.155938 62.150125 
Q 355.155938 64.150125 357.155938 64.150125 
z
" style="fill:#ffffff;opacity:0.8;stroke:#cccccc;stroke-linejoin:miter;"/>
    </g>
    <g id="line2d_146">
     <path d="M 359.155938 54.570438 
L 379.155938 54.570438 
" style="fill:none;stroke:#dc143c;stroke-linecap:square;"/>
    </g>
    <g id="line2d_147"/>
    <g id="text_22">
     <!-- V(t) -->
     <g transform="translate(387.155938 58.070438)scale(0.1 -0.1)">
      <defs>
       <path d="M 1984 4856 
Q 1566 4138 1362 3434 
Q 1159 2731 1159 2009 
Q 1159 1288 1364 580 
Q 1569 -128 1984 -844 
L 1484 -844 
Q 1016 -109 783 600 
Q 550 1309 550 2009 
Q 550 2706 781 3412 
Q 1013 4119 1484 4856 
L 1984 4856 
z
" id="DejaVuSans-28" transform="scale(0.015625)"/>
       <path d="M 513 4856 
L 1013 4856 
Q 1481 4119 1714 3412 
Q 1947 2706 1947 2009 
Q 1947 1309 1714 600 
Q 1481 -109 1013 -844 
L 513 -844 
Q 928 -128 1133 580 
Q 1338 1288 1338 2009 
Q 1338 2731 1133 3434 
Q 928 4138 513 4856 
z
" id="DejaVuSans-29" transform="scale(0.015625)"/>
      </defs>
      <use xlink:href="#DejaVuSans-56"/>
      <use x="68.408203" xlink:href="#DejaVuSans-28"/>
      <use x="107.421875" xlink:href="#DejaVuSans-74"/>
      <use x="146.630859" xlink:href="#DejaVuSans-29"/>
     </g>
    </g>
   </g>
  </g>
 </g>
 <defs>
  <clipPath id="p17f726cb55">
   <rect height="266.112" width="357.12" x="57.6" y="41.472"/>
  </clipPath>
 </defs>
</svg>
